<?xml version="1.0" encoding="utf-8"?>
<!-- Generator: Adobe Illustrator 27.6.1, SVG Export Plug-In . SVG Version: 6.00 Build 0)  -->
<svg version="1.1" id="Layer_1" xmlns="http://www.w3.org/2000/svg" xmlns:xlink="http://www.w3.org/1999/xlink" x="0px" y="0px"
	 viewBox="0 0 2048 2048" style="enable-background:new 0 0 2048 2048;" xml:space="preserve">
<style type="text/css">
	.st0{fill:none;}
	.st1{fill:#8D183C;}
	.st2{fill:#740026;}
	.st3{fill:#830531;}
	.st4{fill:#6E001F;}
	.st5{fill:#80002D;}
	.st6{fill:#7B0029;}
	.st7{fill:#6A001B;}
	.st8{fill:#8D043B;}
	.st9{fill:#7C002B;}
	.st10{fill:#6D001A;}
	.st11{fill:#71001E;}
	.st12{fill:#770024;}
	.st13{fill:#70001E;}
	.st14{fill:#690016;}
	.st15{fill:#780026;}
	.st16{fill:#600011;}
	.st17{fill:#6C001D;}
	.st18{fill:#680018;}
	.st19{fill:#580004;}
	.st20{fill:#60000C;}
	.st21{fill:#80002E;}
	.st22{fill:#5C0006;}
	.st23{fill:#730020;}
	.st24{fill:#730022;}
	.st25{fill:#650012;}
	.st26{fill:#62000E;}
	.st27{fill:#660014;}
	.st28{fill:#750022;}
	.st29{fill:#60000E;}
	.st30{fill:#610011;}
	.st31{fill:#580006;}
	.st32{fill:#510000;}
	.st33{fill:#670018;}
	.st34{fill:#670014;}
	.st35{fill:#630010;}
	.st36{fill:#560002;}
	.st37{fill:#5E000D;}
	.st38{fill:#6D001B;}
	.st39{fill:#690018;}
	.st40{fill:#5A0003;}
	.st41{fill:#5B0005;}
	.st42{fill:#80002F;}
	.st43{fill:#710020;}
	.st44{fill:#660015;}
	.st45{fill:url(#SVGID_1_);}
	.st46{fill:#01A9E0;}
	.st47{fill:#8ED6F6;}
	.st48{fill:#CCECFC;}
	.st49{fill:#FFFFFF;}
</style>
<pattern  width="719.96" height="719.96" patternUnits="userSpaceOnUse" id="Pattern_4_-_Achieva_Burgundy" viewBox="0 -719.96 719.96 719.96" style="overflow:visible;">
	<g>
		<rect y="-719.96" class="st0" width="719.96" height="719.96"/>
		<path class="st1" d="M719.96-12.5V0H527.74v-12.5H719.96 M89.49-34.48V0H0v-12.5h55.08v-21.99H89.49 M247.49-89.08v18.1h203.25
			v16.5H200.96v-34.59H247.49 M719.96-174.08v31h-57v-31H719.96 M110.49-193.5v37.01H43.85v13.41H0v-31h84.74v-19.42H110.49
			 M110.49-240.13v27.05H84.74v-27.05H110.49 M420.74-305.47v14.39h71.75v21.6h180.01v10.4H403.74v-25.41h-86.15v-20.99H420.74
			 M205.16-366.97v24.33h-47.2v-24.33H205.16 M94.49-427.08v33.1H0v-33.1H94.49 M669.74-437.47v10.39h50.23v33.1h-85.23v-43.49
			H669.74 M205.16-491.48v26.51H94.49v14.89h-43.5v-41.4H205.16 M358.51-572.97v27.5h-62.55v-27.5H358.51 M89.49-669.08v29.1h158v37
			h-75.03v-20.99H50.99v-45.11H89.49 M89.49-719.96v12.88H0v-12.88H89.49 M719.96-719.96v12.88h-90.23v17.62H504.97v-10.62h22.77
			v-19.88H719.96"/>
		<path class="st2" d="M492.48-366.97v37.89h-71.75v23.61H317.58v-37.16H205.16v-24.33H492.48 M634.74-437.47v43.49h-86.27v-43.49
			H634.74 M358.51-515.5v50.53H205.16v-26.51h90.8v-24.02H358.51 M358.51-545.47v10.39h-62.55v-10.39H358.51"/>
		<path class="st3" d="M110.49-269.48v29.35H84.74v-18.95H0v-10.4H110.49 M205.16-342.63v37.16h112.43v20.99H157.96v-58.15H205.16"
			/>
		<polyline class="st4" points="317.58,-342.63 205.16,-342.63 205.16,-305.47 317.58,-305.47 317.58,-342.63 		"/>
		<polyline class="st3" points="719.96,-269.48 672.49,-269.48 672.49,-259.08 719.96,-259.08 719.96,-269.48 		"/>
		<polyline class="st5" points="172.46,-623.97 50.99,-623.97 50.99,-602.98 172.46,-602.98 172.46,-623.97 		"/>
		<path class="st6" d="M448.91-174.08v17.59h-45.17v-17.59H448.91 M662.97-174.08v31h-32.23v21h-71v27h-109v24.1H247.49v-18.1
			h156.25v-16.42h103.34v-29.58h97.83v-39H662.97"/>
		<polyline class="st5" points="492.48,-305.47 420.74,-305.47 420.74,-291.08 492.48,-291.08 492.48,-305.47 		"/>
		<polyline class="st7" points="492.48,-329.08 420.74,-329.08 420.74,-305.47 492.48,-305.47 492.48,-329.08 		"/>
		<polyline class="st5" points="94.49,-450.08 50.99,-450.08 50.99,-437.47 0,-437.47 0,-427.08 94.49,-427.08 94.49,-450.08 		"/>
		<polyline class="st5" points="719.96,-437.47 669.74,-437.47 669.74,-427.08 719.96,-427.08 719.96,-437.47 		"/>
		<polyline class="st7" points="358.51,-535.08 295.96,-535.08 295.96,-515.5 358.51,-515.5 358.51,-535.08 		"/>
		<polyline class="st8" points="110.49,-213.08 84.74,-213.08 84.74,-193.5 110.49,-193.5 110.49,-213.08 		"/>
		<polyline class="st8" points="719.96,-143.08 662.97,-143.08 662.97,-122.08 719.96,-122.08 719.96,-143.08 		"/>
		<polyline class="st9" points="662.97,-143.08 630.73,-143.08 630.73,-122.08 662.97,-122.08 662.97,-143.08 		"/>
		<polyline class="st8" points="43.85,-143.08 0,-143.08 0,-122.08 43.85,-122.08 43.85,-143.08 		"/>
		<polyline class="st6" points="719.96,-707.08 629.74,-707.08 629.74,-689.46 719.96,-689.46 719.96,-707.08 		"/>
		<polyline class="st6" points="89.49,-707.08 0,-707.08 0,-689.46 50.99,-689.46 50.99,-669.08 89.49,-669.08 89.49,-707.08 		"/>
		<polyline class="st5" points="527.74,-719.96 504.97,-719.96 504.97,-700.08 527.74,-700.08 527.74,-719.96 		"/>
		<polyline class="st5" points="527.74,-12.5 504.97,-12.5 504.97,0 527.74,0 527.74,-12.5 		"/>
		<polyline class="st6" points="189.74,-719.96 89.49,-719.96 89.49,-707.08 155.74,-707.08 155.74,-669.08 89.49,-669.08 
			89.49,-639.98 247.49,-639.98 247.49,-659.97 358.51,-659.97 358.51,-689.46 504.97,-689.46 504.97,-700.08 189.74,-700.08 
			189.74,-719.96 		"/>
		<polyline class="st10" points="155.74,-707.08 89.49,-707.08 89.49,-669.08 155.74,-669.08 155.74,-707.08 		"/>
		<polyline class="st11" points="504.97,-719.96 189.74,-719.96 189.74,-700.08 504.97,-700.08 504.97,-719.96 		"/>
		<polyline class="st6" points="450.74,-54.49 200.96,-54.49 200.96,-34.48 89.49,-34.48 89.49,0 189.74,0 189.74,-25.08 
			450.74,-25.08 450.74,-54.49 		"/>
		<polyline class="st11" points="450.74,-25.08 189.74,-25.08 189.74,0 504.97,0 504.97,-12.5 450.74,-12.5 450.74,-25.08 		"/>
		<path class="st12" d="M247.49-105.5v16.42h-46.53v-16.42H247.49 M403.74-284.49v25.41h-46v47.59H247.49v55h-137v-37.01h88.25
			v-19.58h-88.25v-27.05h207.1v-44.35H403.74"/>
		<polyline class="st13" points="317.58,-284.49 157.96,-284.49 157.96,-269.48 110.49,-269.48 110.49,-240.13 317.58,-240.13 
			317.58,-284.49 		"/>
		<path class="st14" d="M403.74-105.5v16.42H247.49v-16.42H403.74 M357.74-211.49v37.41h46v17.59H247.49v-55H357.74"/>
		<polyline class="st15" points="198.73,-213.08 110.49,-213.08 110.49,-193.5 198.73,-193.5 198.73,-213.08 		"/>
		<polyline class="st2" points="719.96,-393.98 634.74,-393.98 634.74,-305.47 603.97,-305.47 603.97,-291.08 492.48,-291.08 
			492.48,-269.48 672.49,-269.48 672.49,-342.63 719.96,-342.63 719.96,-393.98 		"/>
		<polyline class="st16" points="634.74,-393.98 548.47,-393.98 548.47,-366.97 492.48,-366.97 492.48,-329.08 603.97,-329.08 
			603.97,-305.47 634.74,-305.47 634.74,-393.98 		"/>
		<polyline class="st17" points="719.96,-342.63 672.49,-342.63 672.49,-269.48 719.96,-269.48 719.96,-342.63 		"/>
		<polyline class="st18" points="603.97,-305.47 492.48,-305.47 492.48,-291.08 603.97,-291.08 603.97,-305.47 		"/>
		<polyline class="st19" points="603.97,-329.08 492.48,-329.08 492.48,-305.47 603.97,-305.47 603.97,-329.08 		"/>
		<polyline class="st5" points="672.49,-259.08 403.74,-259.08 403.74,-211.49 448.91,-211.49 448.91,-235.08 604.91,-235.08 
			604.91,-211.49 662.97,-211.49 662.97,-174.08 719.96,-174.08 719.96,-240.13 672.49,-240.13 672.49,-259.08 		"/>
		<polyline class="st15" points="719.96,-259.08 672.49,-259.08 672.49,-240.13 719.96,-240.13 719.96,-259.08 		"/>
		<path class="st11" d="M448.91-211.49v37.41h-45.17v-37.41H448.91 M662.97-211.49v37.41h-58.06v-37.41H662.97"/>
		<polyline class="st10" points="403.74,-259.08 357.74,-259.08 357.74,-211.49 403.74,-211.49 403.74,-259.08 		"/>
		<polyline class="st20" points="403.74,-211.49 357.74,-211.49 357.74,-174.08 403.74,-174.08 403.74,-211.49 		"/>
		<polyline class="st5" points="84.74,-240.13 0,-240.13 0,-174.08 84.74,-174.08 84.74,-193.5 42.74,-193.5 42.74,-213.08 
			84.74,-213.08 84.74,-240.13 		"/>
		<polyline class="st15" points="84.74,-259.08 0,-259.08 0,-240.13 84.74,-240.13 84.74,-259.08 		"/>
		<polyline class="st21" points="84.74,-213.08 42.74,-213.08 42.74,-193.5 84.74,-193.5 84.74,-213.08 		"/>
		<polyline class="st2" points="247.49,-602.98 172.46,-602.98 172.46,-519.62 50.99,-519.62 50.99,-491.48 205.16,-491.48 
			205.16,-545.47 295.96,-545.47 295.96,-572.97 247.49,-572.97 247.49,-602.98 		"/>
		<polyline class="st16" points="295.96,-545.47 205.16,-545.47 205.16,-491.48 295.96,-491.48 295.96,-515.5 236.74,-515.5 
			236.74,-535.08 295.96,-535.08 295.96,-545.47 		"/>
		<polyline class="st18" points="172.46,-602.98 50.99,-602.98 50.99,-519.62 172.46,-519.62 172.46,-602.98 		"/>
		<polyline class="st19" points="295.96,-535.08 236.74,-535.08 236.74,-515.5 295.96,-515.5 295.96,-535.08 		"/>
		<polyline class="st2" points="94.49,-393.98 0,-393.98 0,-342.63 157.96,-342.63 157.96,-366.97 94.49,-366.97 94.49,-393.98 		
			"/>
		<polyline class="st17" points="157.96,-342.63 0,-342.63 0,-269.48 110.49,-269.48 110.49,-284.49 157.96,-284.49 157.96,-342.63 
					"/>
		<polyline class="st22" points="157.96,-284.49 110.49,-284.49 110.49,-269.48 157.96,-269.48 157.96,-284.49 		"/>
		<polyline class="st23" points="43.85,-112.5 0,-112.5 0,-95.08 55.08,-95.08 55.08,-34.48 89.49,-34.48 89.49,-54.49 
			200.96,-54.49 200.96,-89.08 110.49,-89.08 110.49,-105.5 43.85,-105.5 43.85,-112.5 		"/>
		<polyline class="st24" points="43.85,-122.08 0,-122.08 0,-112.5 43.85,-112.5 43.85,-122.08 		"/>
		<polyline class="st25" points="200.96,-54.49 89.49,-54.49 89.49,-34.48 200.96,-34.48 200.96,-54.49 		"/>
		<polyline class="st26" points="200.96,-105.5 110.49,-105.5 110.49,-89.08 200.96,-89.08 200.96,-105.5 		"/>
		<polyline class="st23" points="719.96,-112.5 662.97,-112.5 662.97,-95.08 719.96,-95.08 719.96,-112.5 		"/>
		<polyline class="st25" points="630.73,-122.08 559.74,-122.08 559.74,-95.08 662.97,-95.08 662.97,-112.5 630.73,-112.5 
			630.73,-122.08 		"/>
		<polyline class="st24" points="719.96,-122.08 662.97,-122.08 662.97,-112.5 719.96,-112.5 719.96,-122.08 		"/>
		<polyline class="st27" points="662.97,-122.08 630.73,-122.08 630.73,-112.5 662.97,-112.5 662.97,-122.08 		"/>
		<path class="st5" d="M50.99-491.48v41.4H0v-41.4H50.99 M50.99-669.08v45.11H0v-45.11H50.99"/>
		<polyline class="st28" points="50.99,-623.97 0,-623.97 0,-602.98 50.99,-602.98 50.99,-623.97 		"/>
		<polyline class="st28" points="50.99,-450.08 0,-450.08 0,-437.47 50.99,-437.47 50.99,-450.08 		"/>
		<polyline class="st11" points="50.99,-689.46 0,-689.46 0,-669.08 50.99,-669.08 50.99,-689.46 		"/>
		<polyline class="st7" points="50.99,-519.62 0,-519.62 0,-491.48 50.99,-491.48 50.99,-519.62 		"/>
		<polyline class="st29" points="50.99,-602.98 0,-602.98 0,-519.62 50.99,-519.62 50.99,-602.98 		"/>
		<path class="st5" d="M719.96-491.48v41.4h-50.23v12.61h-35v-54.01H719.96 M445.97-572.97v27.5h-87.46v-27.5H445.97 M629.74-689.46
			v20.38h90.23v45.11H570.47v-36h-65.5v-29.49H629.74"/>
		<polyline class="st7" points="445.97,-545.47 358.51,-545.47 358.51,-535.08 392.74,-535.08 392.74,-515.5 358.51,-515.5 
			358.51,-464.97 548.47,-464.97 548.47,-437.47 634.74,-437.47 634.74,-491.48 593.48,-491.48 593.48,-519.62 445.97,-519.62 
			445.97,-545.47 		"/>
		<polyline class="st28" points="719.96,-623.97 570.47,-623.97 570.47,-572.97 445.97,-572.97 445.97,-545.47 593.48,-545.47 
			593.48,-602.98 719.96,-602.98 719.96,-623.97 		"/>
		<polyline class="st30" points="593.48,-545.47 445.97,-545.47 445.97,-519.62 593.48,-519.62 593.48,-545.47 		"/>
		<polyline class="st28" points="719.96,-450.08 669.74,-450.08 669.74,-437.47 719.96,-437.47 719.96,-450.08 		"/>
		<polyline class="st30" points="392.74,-535.08 358.51,-535.08 358.51,-515.5 392.74,-515.5 392.74,-535.08 		"/>
		<polyline class="st11" points="719.96,-689.46 629.74,-689.46 629.74,-669.08 719.96,-669.08 719.96,-689.46 		"/>
		<polyline class="st11" points="504.97,-689.46 358.51,-689.46 358.51,-659.97 504.97,-659.97 504.97,-689.46 		"/>
		<polyline class="st7" points="719.96,-519.62 634.74,-519.62 634.74,-491.48 719.96,-491.48 719.96,-519.62 		"/>
		<polyline class="st31" points="634.74,-519.62 593.48,-519.62 593.48,-491.48 634.74,-491.48 634.74,-519.62 		"/>
		<polyline class="st29" points="719.96,-602.98 593.48,-602.98 593.48,-545.47 634.74,-545.47 634.74,-519.62 719.96,-519.62 
			719.96,-602.98 		"/>
		<polyline class="st32" points="634.74,-545.47 593.48,-545.47 593.48,-519.62 634.74,-519.62 634.74,-545.47 		"/>
		<polyline class="st6" points="358.51,-639.98 247.49,-639.98 247.49,-602.98 295.96,-602.98 295.96,-572.97 358.51,-572.97 
			358.51,-639.98 		"/>
		<polyline class="st10" points="358.51,-659.97 247.49,-659.97 247.49,-639.98 358.51,-639.98 358.51,-659.97 		"/>
		<polyline class="st33" points="295.96,-602.98 247.49,-602.98 247.49,-572.97 295.96,-572.97 295.96,-602.98 		"/>
		<polyline class="st11" points="570.47,-659.97 504.97,-659.97 504.97,-639.98 358.51,-639.98 358.51,-572.97 445.97,-572.97 
			445.97,-623.97 570.47,-623.97 570.47,-659.97 		"/>
		<polyline class="st34" points="570.47,-623.97 445.97,-623.97 445.97,-572.97 570.47,-572.97 570.47,-623.97 		"/>
		<polyline class="st35" points="504.97,-659.97 358.51,-659.97 358.51,-639.98 504.97,-639.98 504.97,-659.97 		"/>
		<polyline class="st6" points="205.16,-464.97 94.49,-464.97 94.49,-450.08 160.97,-450.08 160.97,-427.08 94.49,-427.08 
			94.49,-393.98 157.96,-393.98 157.96,-366.97 205.16,-366.97 205.16,-464.97 		"/>
		<polyline class="st33" points="358.51,-464.97 205.16,-464.97 205.16,-366.97 492.48,-366.97 492.48,-393.98 548.47,-393.98 
			548.47,-437.47 358.51,-437.47 358.51,-464.97 		"/>
		<polyline class="st11" points="160.97,-450.08 94.49,-450.08 94.49,-427.08 160.97,-427.08 160.97,-450.08 		"/>
		<polyline class="st36" points="548.47,-393.98 492.48,-393.98 492.48,-366.97 548.47,-366.97 548.47,-393.98 		"/>
		<polyline class="st33" points="157.96,-393.98 94.49,-393.98 94.49,-366.97 157.96,-366.97 157.96,-393.98 		"/>
		<polyline class="st37" points="548.47,-464.97 358.51,-464.97 358.51,-437.47 548.47,-437.47 548.47,-464.97 		"/>
		<polyline class="st5" points="110.49,-156.49 43.85,-156.49 43.85,-143.08 110.49,-143.08 110.49,-156.49 		"/>
		<polyline class="st11" points="448.91,-156.49 403.74,-156.49 403.74,-105.5 507.08,-105.5 507.08,-135.08 448.91,-135.08 
			448.91,-156.49 		"/>
		<polyline class="st21" points="110.49,-143.08 43.85,-143.08 43.85,-122.08 110.49,-122.08 110.49,-143.08 		"/>
		<polyline class="st10" points="247.49,-156.49 110.49,-156.49 110.49,-143.08 141.74,-143.08 141.74,-122.08 200.96,-122.08 
			200.96,-105.5 247.49,-105.5 247.49,-156.49 		"/>
		<polyline class="st20" points="403.74,-156.49 247.49,-156.49 247.49,-105.5 403.74,-105.5 403.74,-156.49 		"/>
		<polyline class="st38" points="141.74,-143.08 110.49,-143.08 110.49,-122.08 141.74,-122.08 141.74,-143.08 		"/>
		<polyline class="st14" points="110.49,-112.5 43.85,-112.5 43.85,-105.5 110.49,-105.5 110.49,-112.5 		"/>
		<polyline class="st39" points="110.49,-122.08 43.85,-122.08 43.85,-112.5 110.49,-112.5 110.49,-122.08 		"/>
		<polyline class="st40" points="200.96,-122.08 141.74,-122.08 141.74,-112.5 110.49,-112.5 110.49,-105.5 200.96,-105.5 
			200.96,-122.08 		"/>
		<polyline class="st41" points="141.74,-122.08 110.49,-122.08 110.49,-112.5 141.74,-112.5 141.74,-122.08 		"/>
		<polyline class="st8" points="559.74,-70.98 450.74,-70.98 450.74,-54.49 504.97,-54.49 504.97,-25.08 527.74,-25.08 
			527.74,-12.5 719.96,-12.5 719.96,-34.48 559.74,-34.48 559.74,-70.98 		"/>
		<polyline class="st9" points="559.74,-95.08 450.74,-95.08 450.74,-70.98 559.74,-70.98 559.74,-95.08 		"/>
		<polyline class="st42" points="527.74,-25.08 504.97,-25.08 504.97,-12.5 527.74,-12.5 527.74,-25.08 		"/>
		<polyline class="st9" points="504.97,-54.49 450.74,-54.49 450.74,-25.08 504.97,-25.08 504.97,-54.49 		"/>
		<polyline class="st43" points="504.97,-25.08 450.74,-25.08 450.74,-12.5 504.97,-12.5 504.97,-25.08 		"/>
		<polyline class="st24" points="719.96,-95.08 662.97,-95.08 662.97,-70.98 559.74,-70.98 559.74,-34.48 719.96,-34.48 
			719.96,-95.08 		"/>
		<polyline class="st44" points="662.97,-95.08 559.74,-95.08 559.74,-70.98 662.97,-70.98 662.97,-95.08 		"/>
		<polyline class="st8" points="55.08,-34.48 0,-34.48 0,-12.5 55.08,-12.5 55.08,-34.48 		"/>
		<polyline class="st24" points="55.08,-95.08 0,-95.08 0,-34.48 55.08,-34.48 55.08,-95.08 		"/>
		<polyline class="st10" points="604.91,-174.08 448.91,-174.08 448.91,-156.49 507.08,-156.49 507.08,-135.08 604.91,-135.08 
			604.91,-174.08 		"/>
		<polyline class="st11" points="604.91,-235.08 448.91,-235.08 448.91,-211.49 604.91,-211.49 604.91,-235.08 		"/>
		<polyline class="st35" points="604.91,-211.49 448.91,-211.49 448.91,-174.08 604.91,-174.08 604.91,-211.49 		"/>
		<polyline class="st35" points="507.08,-156.49 448.91,-156.49 448.91,-135.08 507.08,-135.08 507.08,-156.49 		"/>
	</g>
</pattern>
<pattern  id="SVGID_1_" xlink:href="#Pattern_4_-_Achieva_Burgundy" patternTransform="matrix(4.5564 0 0 4.5564 23507.332 25936.9551)">
</pattern>
<rect y="263.01" class="st45" width="2048" height="1784.36"/>
<g>
	<rect class="st46" width="683.03" height="251"/>
	<rect x="681.95" class="st47" width="683.03" height="251"/>
	<rect x="1364.97" class="st48" width="683.03" height="251"/>
</g>
<g>
	<path class="st49" d="M1025.46,396.76L253.29,1841.51h340.56l130.34-255.77h591.5l130.31,255.77h348.7L1025.46,396.76z
		 M845.58,1345.93l174.26-340.63l174.48,340.63H845.58z"/>
</g>
</svg>
