<?xml version="1.0" encoding="UTF-8"?>
<!DOCTYPE svg PUBLIC "-//W3C//DTD SVG 1.1//EN" "http://www.w3.org/Graphics/SVG/1.1/DTD/svg11.dtd">
<svg xmlns="http://www.w3.org/2000/svg" version="1.1" width="443px" height="183px" style="shape-rendering:geometricPrecision; text-rendering:geometricPrecision; image-rendering:optimizeQuality; fill-rule:evenodd; clip-rule:evenodd" xmlns:xlink="http://www.w3.org/1999/xlink">
<g><path style="opacity:0.022" fill="#eeeeee" d="M 240.5,68.5 C 238.919,70.1417 238.253,72.1417 238.5,74.5C 237.387,73.0536 237.22,71.3869 238,69.5C 238.671,68.7476 239.504,68.4142 240.5,68.5 Z"/></g>
<g><path style="opacity:0.714" fill="#5d5d5d" d="M 245.5,69.5 C 245.784,71.4147 245.451,73.0813 244.5,74.5C 244.5,73.1667 244.5,71.8333 244.5,70.5C 240.56,69.766 239.227,71.0993 240.5,74.5C 239.833,74.5 239.5,74.8333 239.5,75.5C 238.833,75.5 238.5,75.1667 238.5,74.5C 238.253,72.1417 238.919,70.1417 240.5,68.5C 241.625,67.9859 242.791,67.6526 244,67.5C 244.278,68.4158 244.778,69.0825 245.5,69.5 Z"/></g>
<g><path style="opacity:0.036" fill="#eeeeee" d="M 244.5,74.5 C 243.167,74.5 241.833,74.5 240.5,74.5C 239.227,71.0993 240.56,69.766 244.5,70.5C 244.5,71.8333 244.5,73.1667 244.5,74.5 Z"/></g>
<g><path style="opacity:0.812" fill="#929292" d="M 245.5,69.5 C 248.067,73.0929 247.067,75.7595 242.5,77.5C 241.261,77.0576 240.261,76.3909 239.5,75.5C 239.5,74.8333 239.833,74.5 240.5,74.5C 241.833,74.5 243.167,74.5 244.5,74.5C 245.451,73.0813 245.784,71.4147 245.5,69.5 Z"/></g>
<g><path style="opacity:0.035" fill="#fefffe" d="M 144.5,82.5 C 143.833,81.1667 143.833,81.1667 144.5,82.5 Z"/></g>
<g><path style="opacity:0.018" fill="#e8e8e8" d="M 148.5,87.5 C 147.5,87.5 146.5,87.5 145.5,87.5C 145.5,85.8333 145.5,84.1667 145.5,82.5C 145.435,82.0618 145.601,81.7284 146,81.5C 147.906,83.4082 148.74,85.4082 148.5,87.5 Z"/></g>
<g><path style="opacity:0.017" fill="#fefffe" d="M 144.5,83.5 C 144.5,84.8333 144.5,86.1667 144.5,87.5C 143.5,87.5 142.5,87.5 141.5,87.5C 141.799,85.5447 142.799,84.2114 144.5,83.5 Z"/></g>
<g><path style="opacity:0.869" fill="#1e1e1e" d="M 144.5,82.5 C 144.833,82.5 145.167,82.5 145.5,82.5C 145.5,84.1667 145.5,85.8333 145.5,87.5C 146.5,87.5 147.5,87.5 148.5,87.5C 148.833,87.5 149.167,87.5 149.5,87.5C 148.432,88.4345 147.099,88.7678 145.5,88.5C 145.784,90.4147 145.451,92.0813 144.5,93.5C 144.5,93.1667 144.5,92.8333 144.5,92.5C 144.5,91.1667 144.5,89.8333 144.5,88.5C 142.901,88.7678 141.568,88.4345 140.5,87.5C 140.833,87.5 141.167,87.5 141.5,87.5C 142.5,87.5 143.5,87.5 144.5,87.5C 144.5,86.1667 144.5,84.8333 144.5,83.5C 144.5,83.1667 144.5,82.8333 144.5,82.5 Z"/></g>
<g><path style="opacity:0.72" fill="#797979" d="M 241.5,87.5 C 241.5,87.8333 241.5,88.1667 241.5,88.5C 240.833,88.5 240.5,88.8333 240.5,89.5C 229.833,89.5 219.167,89.5 208.5,89.5C 204.5,89.5 200.5,89.5 196.5,89.5C 187.833,89.5 179.167,89.5 170.5,89.5C 170.5,88.8333 170.167,88.5 169.5,88.5C 169.5,88.1667 169.5,87.8333 169.5,87.5C 193.501,87.4852 217.501,87.4852 241.5,87.5 Z"/></g>
<g><path style="opacity:0.03" fill="#e6e6e6" d="M 140.5,87.5 C 141.568,88.4345 142.901,88.7678 144.5,88.5C 144.5,89.8333 144.5,91.1667 144.5,92.5C 143.833,92.5 143.5,92.8333 143.5,93.5C 142.717,91.9242 141.55,90.5908 140,89.5C 139.308,88.5632 139.475,87.8966 140.5,87.5 Z"/></g>
<g><path style="opacity:0.02" fill="#fefffe" d="M 208.5,89.5 C 219.167,89.5 229.833,89.5 240.5,89.5C 240.5,92.1667 240.5,94.8333 240.5,97.5C 239.532,95.3926 239.198,93.0593 239.5,90.5C 228.986,90.8276 218.653,90.4942 208.5,89.5 Z"/></g>
<g><path style="opacity:0.392" fill="#c9c9c9" d="M 149.5,87.5 C 150.376,87.3691 151.043,87.7025 151.5,88.5C 150.008,90.1565 148.342,91.6565 146.5,93C 146.833,93.3333 147.167,93.6667 147.5,94C 145.934,94.765 144.601,94.5983 143.5,93.5C 143.833,93.5 144.167,93.5 144.5,93.5C 145.451,92.0813 145.784,90.4147 145.5,88.5C 147.099,88.7678 148.432,88.4345 149.5,87.5 Z"/></g>
<g><path style="opacity:0.221" fill="#c7c7c6" d="M 241.5,87.5 C 242.633,89.0552 243.299,90.8886 243.5,93C 242.558,103.471 242.225,113.971 242.5,124.5C 242.5,125.833 242.5,127.167 242.5,128.5C 241.504,115.344 241.171,102.01 241.5,88.5C 241.5,88.1667 241.5,87.8333 241.5,87.5 Z"/></g>
<g><path style="opacity:0.092" fill="#b2b2b2" d="M 271.5,96.5 C 273.5,96.5 275.5,96.5 277.5,96.5C 277.5,97.5 277.5,98.5 277.5,99.5C 275.5,99.5 273.5,99.5 271.5,99.5C 271.5,98.5 271.5,97.5 271.5,96.5 Z"/></g>
<g><path style="opacity:0.38" fill="#c5faea" d="M 220.5,110.5 C 218.143,110.337 215.81,110.503 213.5,111C 211.024,114.145 208.69,117.312 206.5,120.5C 207.473,114.184 210.973,110.184 217,108.5C 218.699,108.387 219.866,109.053 220.5,110.5 Z"/></g>
<g><path style="opacity:0.216" fill="#bdfae8" d="M 220.5,110.5 C 221.043,110.56 221.376,110.893 221.5,111.5C 218.642,117.234 215.309,122.567 211.5,127.5C 214.233,121.702 217.233,116.035 220.5,110.5 Z"/></g>
<g><path style="opacity:0.049" fill="#e6f1f1" d="M 169.5,87.5 C 169.5,87.8333 169.5,88.1667 169.5,88.5C 169.828,99.0135 169.494,109.347 168.5,119.5C 155.833,119.5 143.167,119.5 130.5,119.5C 142.655,118.505 154.989,118.171 167.5,118.5C 167.334,108.494 167.5,98.4944 168,88.5C 168.383,87.944 168.883,87.6107 169.5,87.5 Z"/></g>
<g><path style="opacity:1" fill="#46c59d" d="M 220.5,110.5 C 217.233,116.035 214.233,121.702 211.5,127.5C 211.573,129.027 210.906,130.027 209.5,130.5C 208.272,131.306 207.272,132.306 206.5,133.5C 204.9,134.252 203.4,135.252 202,136.5C 200.743,134.487 199.909,132.321 199.5,130C 199.684,128.624 200.351,127.791 201.5,127.5C 202.496,127.586 203.329,127.252 204,126.5C 205.559,124.783 206.392,122.783 206.5,120.5C 208.69,117.312 211.024,114.145 213.5,111C 215.81,110.503 218.143,110.337 220.5,110.5 Z"/></g>
<g><path style="opacity:1" fill="#2a628d" d="M 161.5,120.5 C 155.021,121.491 148.354,121.824 141.5,121.5C 141.167,121.5 140.833,121.5 140.5,121.5C 137.061,121.253 133.728,121.586 130.5,122.5C 140.446,120.525 150.779,119.858 161.5,120.5 Z"/></g>
<g><path style="opacity:0.188" fill="#b3faeb" d="M 198.5,120.5 C 200.145,121.479 201.479,122.812 202.5,124.5C 204.216,123.451 205.549,122.118 206.5,120.5C 206.392,122.783 205.559,124.783 204,126.5C 203.329,127.252 202.496,127.586 201.5,127.5C 200.758,125.02 199.758,122.687 198.5,120.5 Z"/></g>
<g><path style="opacity:1" fill="#3a8ac1" d="M 140.5,121.5 C 140.5,122.167 140.167,122.5 139.5,122.5C 137.167,122.5 134.833,122.5 132.5,122.5C 132.661,128.479 133.994,134.146 136.5,139.5C 135.603,138.402 134.77,138.402 134,139.5C 133.667,138.5 133.333,137.5 133,136.5C 132.667,136.833 132.333,137.167 132,137.5C 131.738,141.07 131.571,144.403 131.5,147.5C 131.167,147.5 130.833,147.5 130.5,147.5C 130.5,139.167 130.5,130.833 130.5,122.5C 133.728,121.586 137.061,121.253 140.5,121.5 Z"/></g>
<g><path style="opacity:0.216" fill="#bcf4e5" d="M 198.5,120.5 C 195.813,120.336 193.146,120.503 190.5,121C 194.167,126.667 197.833,132.333 201.5,138C 204.3,138 205.967,136.5 206.5,133.5C 207.272,132.306 208.272,131.306 209.5,130.5C 208.62,133.262 207.454,135.929 206,138.5C 204.867,140.211 203.367,140.711 201.5,140C 197.089,133.923 193.089,127.59 189.5,121C 190.044,119.053 191.377,118.22 193.5,118.5C 195.557,118.436 197.223,119.102 198.5,120.5 Z"/></g>
<g><path style="opacity:1" fill="#298fd8" d="M 161.5,120.5 C 161.833,120.5 162.167,120.5 162.5,120.5C 163.848,121.601 165.348,122.601 167,123.5C 168.813,129.357 166.646,131.857 160.5,131C 161.99,132.772 163.657,132.939 165.5,131.5C 166.463,131.97 166.463,132.637 165.5,133.5C 163.801,133.66 162.134,133.494 160.5,133C 159.12,131.075 157.62,129.241 156,127.5C 155.316,126.216 155.483,125.049 156.5,124C 151.99,121.836 150.49,123.336 152,128.5C 152.738,131.648 154.238,134.315 156.5,136.5C 154.216,136.025 152.216,135.025 150.5,133.5C 149.676,129.994 148.343,126.66 146.5,123.5C 145.5,123.5 144.5,123.5 143.5,123.5C 143.567,125.401 143.233,127.234 142.5,129C 144.414,132.069 146.08,135.235 147.5,138.5C 145.248,138.084 143.748,136.751 143,134.5C 141.71,130.27 141.21,125.936 141.5,121.5C 148.354,121.824 155.021,121.491 161.5,120.5 Z"/></g>
<g><path style="opacity:1" fill="#4bbf9b" d="M 198.5,120.5 C 199.758,122.687 200.758,125.02 201.5,127.5C 200.351,127.791 199.684,128.624 199.5,130C 199.909,132.321 200.743,134.487 202,136.5C 203.4,135.252 204.9,134.252 206.5,133.5C 205.967,136.5 204.3,138 201.5,138C 197.833,132.333 194.167,126.667 190.5,121C 193.146,120.503 195.813,120.336 198.5,120.5 Z"/></g>
<g><path style="opacity:0.088" fill="#e9e7da" d="M 242.5,124.5 C 243.267,125.172 243.934,126.005 244.5,127C 257.34,127.169 270.007,127.669 282.5,128.5C 269.167,128.5 255.833,128.5 242.5,128.5C 242.5,127.167 242.5,125.833 242.5,124.5 Z"/></g>
<g><path style="opacity:0.894" fill="#091b2e" d="M 169.5,88.5 C 170.167,88.5 170.5,88.8333 170.5,89.5C 170.5,112.5 170.5,135.5 170.5,158.5C 170.158,159.338 169.492,159.672 168.5,159.5C 168.5,159.167 168.5,158.833 168.5,158.5C 168.5,157.167 168.5,155.833 168.5,154.5C 168.5,154.167 168.5,153.833 168.5,153.5C 168.5,142.5 168.5,131.5 168.5,120.5C 168.5,120.167 168.5,119.833 168.5,119.5C 169.494,109.347 169.828,99.0135 169.5,88.5 Z"/></g>
<g><path style="opacity:1" fill="#3c8cc5" d="M 162.5,120.5 C 164.5,120.5 166.5,120.5 168.5,120.5C 168.5,131.5 168.5,142.5 168.5,153.5C 165.287,153.81 162.287,153.477 159.5,152.5C 161.857,152.663 164.19,152.497 166.5,152C 167.38,150.644 167.714,149.144 167.5,147.5C 167.5,146.833 167.5,146.167 167.5,145.5C 167.5,143.5 167.5,141.5 167.5,139.5C 164.09,139.543 160.757,139.043 157.5,138C 156.944,137.617 156.611,137.117 156.5,136.5C 160.119,137.244 163.785,137.577 167.5,137.5C 167.771,135.62 167.104,134.287 165.5,133.5C 166.463,132.637 166.463,131.97 165.5,131.5C 163.657,132.939 161.99,132.772 160.5,131C 166.646,131.857 168.813,129.357 167,123.5C 165.348,122.601 163.848,121.601 162.5,120.5 Z"/></g>
<g><path style="opacity:1" fill="#1184e3" d="M 150.5,133.5 C 151.259,135.436 152.259,137.269 153.5,139C 153.333,139.5 153.167,140 153,140.5C 151.989,139.663 150.822,139.33 149.5,139.5C 148.833,139.167 148.167,138.833 147.5,138.5C 146.08,135.235 144.414,132.069 142.5,129C 143.233,127.234 143.567,125.401 143.5,123.5C 144.5,123.5 145.5,123.5 146.5,123.5C 148.343,126.66 149.676,129.994 150.5,133.5 Z"/></g>
<g><path style="opacity:1" fill="#1a85da" d="M 165.5,133.5 C 167.104,134.287 167.771,135.62 167.5,137.5C 163.785,137.577 160.119,137.244 156.5,136.5C 154.238,134.315 152.738,131.648 152,128.5C 150.49,123.336 151.99,121.836 156.5,124C 155.483,125.049 155.316,126.216 156,127.5C 157.62,129.241 159.12,131.075 160.5,133C 162.134,133.494 163.801,133.66 165.5,133.5 Z"/></g>
<g><path style="opacity:1" fill="#1485dc" d="M 139.5,122.5 C 140.058,127.516 140.725,132.516 141.5,137.5C 142.96,139.144 144.293,140.977 145.5,143C 145.333,143.5 145.167,144 145,144.5C 143.644,143.62 142.144,143.286 140.5,143.5C 139.717,141.672 138.384,140.339 136.5,139.5C 133.994,134.146 132.661,128.479 132.5,122.5C 134.833,122.5 137.167,122.5 139.5,122.5 Z"/></g>
<g><path style="opacity:0.967" fill="#1a1603" d="M 241.5,88.5 C 241.171,102.01 241.504,115.344 242.5,128.5C 255.833,128.5 269.167,128.5 282.5,128.5C 282.5,133.833 282.5,139.167 282.5,144.5C 282.5,145.167 282.5,145.833 282.5,146.5C 282.5,150.5 282.5,154.5 282.5,158.5C 282.5,159.167 282.167,159.5 281.5,159.5C 281.5,159.167 281.5,158.833 281.5,158.5C 281.5,148.833 281.5,139.167 281.5,129.5C 268.167,129.5 254.833,129.5 241.5,129.5C 241.5,139.167 241.5,148.833 241.5,158.5C 241.5,159.167 241.167,159.5 240.5,159.5C 240.5,159.167 240.5,158.833 240.5,158.5C 240.5,148.167 240.5,137.833 240.5,127.5C 240.5,117.5 240.5,107.5 240.5,97.5C 240.5,94.8333 240.5,92.1667 240.5,89.5C 240.5,88.8333 240.833,88.5 241.5,88.5 Z"/></g>
<g><path style="opacity:1" fill="#b9b375" d="M 281.5,158.5 C 281.167,158.5 280.833,158.5 280.5,158.5C 280.5,149.167 280.5,139.833 280.5,130.5C 267.833,130.5 255.167,130.5 242.5,130.5C 242.5,139.833 242.5,149.167 242.5,158.5C 242.167,158.5 241.833,158.5 241.5,158.5C 241.5,148.833 241.5,139.167 241.5,129.5C 254.833,129.5 268.167,129.5 281.5,129.5C 281.5,139.167 281.5,148.833 281.5,158.5 Z"/></g>
<g><path style="opacity:1" fill="#f0e58f" d="M 280.5,158.5 C 280.167,158.5 279.833,158.5 279.5,158.5C 279.5,157.5 279.5,156.5 279.5,155.5C 279.5,147.5 279.5,139.5 279.5,131.5C 278.167,131.5 276.833,131.5 275.5,131.5C 273.833,131.5 272.167,131.5 270.5,131.5C 261.5,131.5 252.5,131.5 243.5,131.5C 243.5,140.167 243.5,148.833 243.5,157.5C 253.681,157.173 263.681,157.506 273.5,158.5C 263.167,158.5 252.833,158.5 242.5,158.5C 242.5,149.167 242.5,139.833 242.5,130.5C 255.167,130.5 267.833,130.5 280.5,130.5C 280.5,139.833 280.5,149.167 280.5,158.5 Z"/></g>
<g><path style="opacity:1" fill="#fae770" d="M 270.5,131.5 C 272.167,131.5 273.833,131.5 275.5,131.5C 276.209,132.404 277.209,132.737 278.5,132.5C 278.5,139.833 278.5,147.167 278.5,154.5C 277.5,154.5 276.5,154.5 275.5,154.5C 275.248,149.615 275.581,144.781 276.5,140C 275.059,138.055 273.393,136.221 271.5,134.5C 264.678,133.182 258.011,133.182 251.5,134.5C 250.038,133.529 248.705,133.862 247.5,135.5C 247.5,134.5 247.5,133.5 247.5,132.5C 255.352,132.825 263.018,132.492 270.5,131.5 Z"/></g>
<g><path style="opacity:1" fill="#3dacf0" d="M 140.5,121.5 C 140.833,121.5 141.167,121.5 141.5,121.5C 141.21,125.936 141.71,130.27 143,134.5C 143.748,136.751 145.248,138.084 147.5,138.5C 148.167,138.833 148.833,139.167 149.5,139.5C 151.382,140.237 152.048,141.404 151.5,143C 156.595,145.177 161.928,146.01 167.5,145.5C 167.5,146.167 167.5,146.833 167.5,147.5C 162.325,147.728 157.325,146.895 152.5,145C 148.678,142.67 145.012,140.17 141.5,137.5C 140.725,132.516 140.058,127.516 139.5,122.5C 140.167,122.5 140.5,122.167 140.5,121.5 Z"/></g>
<g><path style="opacity:1" fill="#1585db" d="M 150.5,133.5 C 152.216,135.025 154.216,136.025 156.5,136.5C 156.611,137.117 156.944,137.617 157.5,138C 160.757,139.043 164.09,139.543 167.5,139.5C 167.5,141.5 167.5,143.5 167.5,145.5C 161.928,146.01 156.595,145.177 151.5,143C 152.048,141.404 151.382,140.237 149.5,139.5C 150.822,139.33 151.989,139.663 153,140.5C 153.167,140 153.333,139.5 153.5,139C 152.259,137.269 151.259,135.436 150.5,133.5 Z"/></g>
<g><path style="opacity:0.014" fill="#d5e0e6" d="M 129.5,119.5 C 129.826,127.684 129.492,135.684 128.5,143.5C 123.5,143.5 118.5,143.5 113.5,143.5C 118.017,142.834 122.683,142.167 127.5,141.5C 128.136,134.037 128.802,126.704 129.5,119.5 Z"/></g>
<g><path style="opacity:0.012" fill="#f1f5f2" d="M 282.5,128.5 C 283.099,133.761 283.932,139.094 285,144.5C 290.1,149.092 294.6,154.092 298.5,159.5C 298.167,159.5 297.833,159.5 297.5,159.5C 292.833,154.167 287.833,149.167 282.5,144.5C 282.5,139.167 282.5,133.833 282.5,128.5 Z"/></g>
<g><path style="opacity:0.039" fill="#fffeea" d="M 240.5,127.5 C 240.5,137.833 240.5,148.167 240.5,158.5C 239.5,158.5 238.5,158.5 237.5,158.5C 239.118,148.243 240.118,137.91 240.5,127.5 Z"/></g>
<g><path style="opacity:0.992" fill="#738c85" d="M 113.5,143.5 C 118.5,143.5 123.5,143.5 128.5,143.5C 128.5,144.167 128.5,144.833 128.5,145.5C 123.833,145.5 119.167,145.5 114.5,145.5C 113.5,149.732 113.166,154.732 113.5,160.5C 112.167,154.833 112.167,149.167 113.5,143.5 Z"/></g>
<g><path style="opacity:1" fill="#228fda" d="M 136.5,139.5 C 138.384,140.339 139.717,141.672 140.5,143.5C 142.65,144.081 144.484,145.747 146,148.5C 146.333,147.833 146.667,147.167 147,146.5C 148.481,147.471 149.315,148.804 149.5,150.5C 149.167,150.5 148.833,150.5 148.5,150.5C 145.3,148.93 141.967,148.096 138.5,148C 139.598,148.77 139.598,149.603 138.5,150.5C 136.145,149.341 133.812,148.341 131.5,147.5C 131.571,144.403 131.738,141.07 132,137.5C 132.333,137.167 132.667,136.833 133,136.5C 133.333,137.5 133.667,138.5 134,139.5C 134.77,138.402 135.603,138.402 136.5,139.5 Z"/></g>
<g><path style="opacity:1" fill="#1584d5" d="M 141.5,137.5 C 145.012,140.17 148.678,142.67 152.5,145C 157.325,146.895 162.325,147.728 167.5,147.5C 167.714,149.144 167.38,150.644 166.5,152C 164.19,152.497 161.857,152.663 159.5,152.5C 156.097,152.149 152.763,151.482 149.5,150.5C 149.315,148.804 148.481,147.471 147,146.5C 146.667,147.167 146.333,147.833 146,148.5C 144.484,145.747 142.65,144.081 140.5,143.5C 142.144,143.286 143.644,143.62 145,144.5C 145.167,144 145.333,143.5 145.5,143C 144.293,140.977 142.96,139.144 141.5,137.5 Z"/></g>
<g><path style="opacity:1" fill="#55bcf8" d="M 130.5,147.5 C 130.833,147.5 131.167,147.5 131.5,147.5C 133.812,148.341 136.145,149.341 138.5,150.5C 142.457,152.473 146.124,154.806 149.5,157.5C 147.5,156.833 145.5,156.167 143.5,155.5C 140.086,152.46 136.086,150.46 131.5,149.5C 131.167,149.5 130.833,149.5 130.5,149.5C 130.5,148.833 130.5,148.167 130.5,147.5 Z"/></g>
<g><path style="opacity:1" fill="#213a2f" d="M 282.5,144.5 C 287.833,149.167 292.833,154.167 297.5,159.5C 296.391,159.443 295.391,159.11 294.5,158.5C 290.833,154.167 286.833,150.167 282.5,146.5C 282.5,145.833 282.5,145.167 282.5,144.5 Z"/></g>
<g><path style="opacity:1" fill="#57bef8" d="M 148.5,150.5 C 148.833,150.5 149.167,150.5 149.5,150.5C 152.763,151.482 156.097,152.149 159.5,152.5C 162.287,153.477 165.287,153.81 168.5,153.5C 168.5,153.833 168.5,154.167 168.5,154.5C 168.167,154.5 167.833,154.5 167.5,154.5C 160.616,155.191 154.282,153.858 148.5,150.5 Z"/></g>
<g><path style="opacity:1" fill="#1f86d3" d="M 148.5,150.5 C 154.282,153.858 160.616,155.191 167.5,154.5C 167.196,155.15 166.863,155.817 166.5,156.5C 160.872,157.495 155.206,157.829 149.5,157.5C 146.124,154.806 142.457,152.473 138.5,150.5C 139.598,149.603 139.598,148.77 138.5,148C 141.967,148.096 145.3,148.93 148.5,150.5 Z"/></g>
<g><path style="opacity:1" fill="#022c46" d="M 129.5,119.5 C 129.833,119.5 130.167,119.5 130.5,119.5C 143.167,119.5 155.833,119.5 168.5,119.5C 168.5,119.833 168.5,120.167 168.5,120.5C 166.5,120.5 164.5,120.5 162.5,120.5C 162.167,120.5 161.833,120.5 161.5,120.5C 150.779,119.858 140.446,120.525 130.5,122.5C 130.5,130.833 130.5,139.167 130.5,147.5C 130.5,148.167 130.5,148.833 130.5,149.5C 130.5,152.5 130.5,155.5 130.5,158.5C 130.158,159.338 129.492,159.672 128.5,159.5C 128.5,159.167 128.5,158.833 128.5,158.5C 128.5,154.167 128.5,149.833 128.5,145.5C 128.5,144.833 128.5,144.167 128.5,143.5C 129.492,135.684 129.826,127.684 129.5,119.5 Z"/></g>
<g><path style="opacity:1" fill="#f8e878" d="M 275.5,131.5 C 276.833,131.5 278.167,131.5 279.5,131.5C 279.5,139.5 279.5,147.5 279.5,155.5C 267.914,156.478 256.247,156.811 244.5,156.5C 244.334,149.159 244.5,141.826 245,134.5C 245.417,133.244 246.25,132.577 247.5,132.5C 247.5,133.5 247.5,134.5 247.5,135.5C 246.305,135.866 245.639,136.699 245.5,138C 246.029,141.231 246.029,144.564 245.5,148C 245.833,150.167 246.167,152.333 246.5,154.5C 247.417,155.127 248.417,155.461 249.5,155.5C 257.542,155.736 265.542,155.403 273.5,154.5C 274.167,154.5 274.833,154.5 275.5,154.5C 276.5,154.5 277.5,154.5 278.5,154.5C 278.5,147.167 278.5,139.833 278.5,132.5C 277.209,132.737 276.209,132.404 275.5,131.5 Z"/></g>
<g><path style="opacity:1" fill="#fbe76d" d="M 256.5,151.5 C 261.544,151.173 266.544,151.506 271.5,152.5C 272.243,153.182 272.909,153.849 273.5,154.5C 265.542,155.403 257.542,155.736 249.5,155.5C 251.265,154.539 253.265,154.205 255.5,154.5C 255.263,153.209 255.596,152.209 256.5,151.5 Z"/></g>
<g><path style="opacity:1" fill="#fce76b" d="M 251.5,134.5 C 251.643,136.262 251.309,137.929 250.5,139.5C 251.09,140.799 252.09,141.632 253.5,142C 252.397,143.68 252.73,145.18 254.5,146.5C 260.048,145.62 265.548,144.62 271,143.5C 271.167,143.833 271.333,144.167 271.5,144.5C 270.67,146.135 270.503,147.802 271,149.5C 265.996,147.882 260.829,147.215 255.5,147.5C 255.433,148.959 255.766,150.292 256.5,151.5C 255.596,152.209 255.263,153.209 255.5,154.5C 253.265,154.205 251.265,154.539 249.5,155.5C 248.417,155.461 247.417,155.127 246.5,154.5C 246.167,152.333 245.833,150.167 245.5,148C 246.029,144.564 246.029,141.231 245.5,138C 245.639,136.699 246.305,135.866 247.5,135.5C 248.705,133.862 250.038,133.529 251.5,134.5 Z"/></g>
<g><path style="opacity:1" fill="#fce76a" d="M 275.5,154.5 C 274.833,154.5 274.167,154.5 273.5,154.5C 272.909,153.849 272.243,153.182 271.5,152.5C 266.544,151.506 261.544,151.173 256.5,151.5C 255.766,150.292 255.433,148.959 255.5,147.5C 260.829,147.215 265.996,147.882 271,149.5C 270.503,147.802 270.67,146.135 271.5,144.5C 271.333,144.167 271.167,143.833 271,143.5C 265.548,144.62 260.048,145.62 254.5,146.5C 252.73,145.18 252.397,143.68 253.5,142C 252.09,141.632 251.09,140.799 250.5,139.5C 251.309,137.929 251.643,136.262 251.5,134.5C 258.011,133.182 264.678,133.182 271.5,134.5C 273.393,136.221 275.059,138.055 276.5,140C 275.581,144.781 275.248,149.615 275.5,154.5 Z"/></g>
<g><path style="opacity:1" fill="#c0eedb" d="M 282.5,146.5 C 286.833,150.167 290.833,154.167 294.5,158.5C 290.5,158.5 286.5,158.5 282.5,158.5C 282.5,154.5 282.5,150.5 282.5,146.5 Z"/></g>
<g><path style="opacity:1" fill="#1e86d6" d="M 131.5,149.5 C 136.086,150.46 140.086,152.46 143.5,155.5C 139.971,157.423 135.971,158.089 131.5,157.5C 131.5,154.833 131.5,152.167 131.5,149.5 Z"/></g>
<g><path style="opacity:1" fill="#f3e580" d="M 270.5,131.5 C 263.018,132.492 255.352,132.825 247.5,132.5C 246.25,132.577 245.417,133.244 245,134.5C 244.5,141.826 244.334,149.159 244.5,156.5C 256.247,156.811 267.914,156.478 279.5,155.5C 279.5,156.5 279.5,157.5 279.5,158.5C 277.5,158.5 275.5,158.5 273.5,158.5C 263.681,157.506 253.681,157.173 243.5,157.5C 243.5,148.833 243.5,140.167 243.5,131.5C 252.5,131.5 261.5,131.5 270.5,131.5 Z"/></g>
<g><path style="opacity:1" fill="#bef5e1" d="M 114.5,145.5 C 119.167,145.5 123.833,145.5 128.5,145.5C 128.5,149.833 128.5,154.167 128.5,158.5C 123.833,158.5 119.167,158.5 114.5,158.5C 114.5,154.167 114.5,149.833 114.5,145.5 Z"/></g>
<g><path style="opacity:1" fill="#adfcdf" d="M 117.5,147.5 C 120.5,147.5 123.5,147.5 126.5,147.5C 127.443,152.409 125.609,155.409 121,156.5C 119.674,156.245 118.674,155.578 118,154.5C 117.503,152.19 117.337,149.857 117.5,147.5 Z"/></g>
<g><path style="opacity:1" fill="#327db4" d="M 130.5,149.5 C 130.833,149.5 131.167,149.5 131.5,149.5C 131.5,152.167 131.5,154.833 131.5,157.5C 135.971,158.089 139.971,157.423 143.5,155.5C 145.5,156.167 147.5,156.833 149.5,157.5C 155.206,157.829 160.872,157.495 166.5,156.5C 166.863,155.817 167.196,155.15 167.5,154.5C 167.833,154.5 168.167,154.5 168.5,154.5C 168.5,155.833 168.5,157.167 168.5,158.5C 155.974,159.053 143.307,159.053 130.5,158.5C 130.5,155.5 130.5,152.5 130.5,149.5 Z"/></g>
<g><path style="opacity:0.01" fill="#f9fefe" d="M 170.5,89.5 C 179.167,89.5 187.833,89.5 196.5,89.5C 188.432,90.1803 180.265,90.847 172,91.5C 171.178,113.21 171.345,134.876 172.5,156.5C 193.996,157.167 215.329,157.833 236.5,158.5C 214.5,158.5 192.5,158.5 170.5,158.5C 170.5,135.5 170.5,112.5 170.5,89.5 Z"/></g>
<g><path style="opacity:0.71" fill="#355043" d="M 114.5,145.5 C 114.5,149.833 114.5,154.167 114.5,158.5C 119.167,158.5 123.833,158.5 128.5,158.5C 128.5,158.833 128.5,159.167 128.5,159.5C 127.833,159.5 127.5,159.833 127.5,160.5C 123.167,160.5 118.833,160.5 114.5,160.5C 114.167,160.5 113.833,160.5 113.5,160.5C 113.166,154.732 113.5,149.732 114.5,145.5 Z"/></g>
<g><path style="opacity:0.822" fill="#25536d" d="M 130.5,158.5 C 143.307,159.053 155.974,159.053 168.5,158.5C 168.5,158.833 168.5,159.167 168.5,159.5C 155.01,160.496 141.344,160.829 127.5,160.5C 127.5,159.833 127.833,159.5 128.5,159.5C 129.492,159.672 130.158,159.338 130.5,158.5 Z"/></g>
<g><path style="opacity:0.761" fill="#979999" d="M 170.5,158.5 C 192.5,158.5 214.5,158.5 236.5,158.5C 236.833,158.5 237.167,158.5 237.5,158.5C 238.5,158.5 239.5,158.5 240.5,158.5C 240.5,158.833 240.5,159.167 240.5,159.5C 253.42,160.499 267.087,160.832 281.5,160.5C 286.833,160.5 292.167,160.5 297.5,160.5C 236.5,161.833 175.5,161.833 114.5,160.5C 118.833,160.5 123.167,160.5 127.5,160.5C 141.344,160.829 155.01,160.496 168.5,159.5C 169.492,159.672 170.158,159.338 170.5,158.5 Z"/></g>
<g><path style="opacity:0.727" fill="#625b2e" d="M 241.5,158.5 C 241.833,158.5 242.167,158.5 242.5,158.5C 252.833,158.5 263.167,158.5 273.5,158.5C 275.5,158.5 277.5,158.5 279.5,158.5C 279.833,158.5 280.167,158.5 280.5,158.5C 280.833,158.5 281.167,158.5 281.5,158.5C 281.5,158.833 281.5,159.167 281.5,159.5C 281.5,159.833 281.5,160.167 281.5,160.5C 267.087,160.832 253.42,160.499 240.5,159.5C 241.167,159.5 241.5,159.167 241.5,158.5 Z"/></g>
<g><path style="opacity:0.724" fill="#56645f" d="M 282.5,158.5 C 286.5,158.5 290.5,158.5 294.5,158.5C 295.391,159.11 296.391,159.443 297.5,159.5C 297.833,159.5 298.167,159.5 298.5,159.5C 298.5,160.167 298.167,160.5 297.5,160.5C 292.167,160.5 286.833,160.5 281.5,160.5C 281.5,160.167 281.5,159.833 281.5,159.5C 282.167,159.5 282.5,159.167 282.5,158.5 Z"/></g>
</svg>
